<?xml version="1.0" encoding="iso-8859-1"?>
<!-- Generator: Adobe Illustrator 19.0.0, SVG Export Plug-In . SVG Version: 6.00 Build 0)  -->
<svg version="1.1" id="Calque_1" xmlns="http://www.w3.org/2000/svg" xmlns:xlink="http://www.w3.org/1999/xlink" x="0px" y="0px"
	 viewBox="0 0 182.641 222.228" style="enable-background:new 0 0 182.641 222.228;" xml:space="preserve">
<path id="XMLID_512_" style="opacity:0.03;fill:#FFFFFF;stroke:#396AFC;stroke-miterlimit:10;" d="M93.981,153.153
	c-6.361-10.471-2.167-30.976,7.224-37.325c2.831-1.914,7.07-3.174,10.296-1.514c5.37,2.763,2.293,10.717,7.674,21.561
	c3.913,7.885,8.164,8.971,7.236,14.079c-1.013,5.576-7.011,9.407-7.717,9.846c-5.108,3.177-9.742,1.996-13.035,1.157
	C103.316,160.36,97.451,158.866,93.981,153.153z"/>
<path id="XMLID_511_" style="opacity:0.05;fill:#FFFFFF;stroke:#396AFC;stroke-miterlimit:10;" d="M124.236,103.853
	c11.781-21.948,35.106-39.019,42.453-31.713c2.215,2.203,3.709,7.349,1.876,14.278c-3.052,11.536-12.122,15.901-24.341,36.753
	c-8.885,15.162-10.051,23.028-15.86,27.462c-6.341,4.84-10.779-0.084-11.288-0.678c-3.682-4.293-2.414-12.862-1.513-18.951
	C116.204,126.673,117.808,115.828,124.236,103.853z"/>
<linearGradient id="XMLID_581_" gradientUnits="userSpaceOnUse" x1="-213.8666" y1="262.9374" x2="-72.5856" y2="121.6564" gradientTransform="matrix(0.979 0.2038 -0.2038 0.979 270.7236 -47.9654)">
	<stop  offset="0" style="stop-color:#1EF9DE"/>
	<stop  offset="1" style="stop-color:#0B4C65"/>
</linearGradient>
<path id="XMLID_185_" style="fill:url(#XMLID_581_);" d="M88.69,221.6l-6.596-0.805c-47.949-5.852-84.641-51.035-81.955-100.92
	l2.128-39.519C4.954,30.472,46.002-5.224,93.951,0.628l6.596,0.805c47.949,5.852,84.641,51.035,81.955,100.92l-2.128,39.519
	C177.687,191.757,136.639,227.452,88.69,221.6z"/>
<path id="XMLID_184_" style="opacity:0.03;fill:#FFFFFF;stroke:#396AFC;stroke-miterlimit:10;" d="M124.941,187.096
	c-19.523-3.558-37.156-27.914-32.605-43.907c1.372-4.822,5.214-10.475,11.052-12.227c9.719-2.916,14.764,8.045,33.49,12.991
	c13.616,3.596,20.084,0.214,24.621,6.16c4.952,6.49,1.796,16.486,1.411,17.651c-2.784,8.43-9.83,12.118-14.837,14.74
	C144.51,184.369,135.593,189.038,124.941,187.096z"/>
<path id="XMLID_183_" style="opacity:0.05;fill:#FFFFFF;stroke:#396AFC;stroke-miterlimit:10;" d="M107.5,107.471
	c-9.854-33.685,0.001-74.675,17.221-75.23c5.192-0.167,12.767,3.286,18.212,11.951c9.064,14.426,2.702,28.15,10.794,61.226
	c5.884,24.05,13.195,32.931,10.944,43.317c-2.457,11.337-13.428,11.175-14.718,11.128c-9.333-0.337-17.301-10.009-22.963-16.883
	C122.961,138.091,112.877,125.849,107.5,107.471z"/>
<g id="XMLID_565_">
</g>
<g id="XMLID_566_">
</g>
<g id="XMLID_567_">
</g>
<g id="XMLID_568_">
</g>
<g id="XMLID_569_">
</g>
<g id="XMLID_570_">
</g>
<g id="XMLID_571_">
</g>
<g id="XMLID_572_">
</g>
<g id="XMLID_573_">
</g>
<g id="XMLID_574_">
</g>
<g id="XMLID_575_">
</g>
<g id="XMLID_576_">
</g>
<g id="XMLID_577_">
</g>
<g id="XMLID_578_">
</g>
<g id="XMLID_579_">
</g>
</svg>
