<?xml version="1.0" encoding="iso-8859-1"?>
<!-- Generator: Adobe Illustrator 19.0.0, SVG Export Plug-In . SVG Version: 6.00 Build 0)  -->
<svg version="1.1" id="Calque_1" xmlns="http://www.w3.org/2000/svg" xmlns:xlink="http://www.w3.org/1999/xlink" x="0px" y="0px"
	 viewBox="0 0 560.05 563.004" style="enable-background:new 0 0 560.05 563.004;" xml:space="preserve">
<linearGradient id="XMLID_450_" gradientUnits="userSpaceOnUse" x1="-152.444" y1="1220.4011" x2="215.3494" y2="1220.4011" gradientTransform="matrix(1.5183 -0.0789 -0.0789 1.2973 320.39 -1301.0593)">
	<stop  offset="0" style="stop-color:#20B2AA"/>
	<stop  offset="1" style="stop-color:#0B4C65"/>
</linearGradient>
<linearGradient id="XMLID_451_" gradientUnits="userSpaceOnUse" x1="-152.944" y1="1220.4011" x2="215.8494" y2="1220.4011" gradientTransform="matrix(1.5183 -0.0789 -0.0789 1.2973 320.39 -1301.0593)">
	<stop  offset="0" style="stop-color:#20B2AA"/>
	<stop  offset="1" style="stop-color:#0B4C65"/>
</linearGradient>
<path id="XMLID_340_" style="fill:url(#XMLID_450_);stroke:url(#XMLID_451_);stroke-miterlimit:10;" d="M327.846,553.607
	c44.802-15.186,71.376-45.528,84.633-60.664c43.696-49.89,27.281-75.273,70.284-166.676c23.648-50.265,32.159-50.127,52.41-100.054
	c31.716-78.191,23.78-110.425,21.096-119.698c-10.216-35.289-36.439-56.045-48.244-65.138
	C459.771,4.215,393.876,2.385,264.056,0.243C132.448-1.929,102.75,10.867,83.461,22.624C37.744,50.49,19.315,91.532,12.557,106.58
	C-7.83,151.983,0.86,201.242,19.071,297.908c9.146,48.548,13.719,72.822,21.932,92.906c13.88,33.941,39.924,97.628,114.425,137.425
	C180.309,541.53,251.416,579.514,327.846,553.607z"/>
<linearGradient id="XMLID_452_" gradientUnits="userSpaceOnUse" x1="679.3012" y1="287.5029" x2="679.3012" y2="287.5029">
	<stop  offset="0" style="stop-color:#20B2AA"/>
	<stop  offset="1" style="stop-color:#0B4C65"/>
</linearGradient>
<linearGradient id="XMLID_453_" gradientUnits="userSpaceOnUse" x1="679.3012" y1="287.5029" x2="679.3012" y2="287.5029">
	<stop  offset="0" style="stop-color:#20B2AA"/>
	<stop  offset="1" style="stop-color:#0B4C65"/>
</linearGradient>
<path id="XMLID_321_" style="fill:url(#XMLID_452_);stroke:url(#XMLID_453_);stroke-miterlimit:10;" d="M679.301,287.503"/>
<path id="XMLID_428_" style="opacity:0.03;fill:#FFFFFF;stroke:#396AFC;stroke-miterlimit:10;" d="M191.594,46.971
	c53.226-27.743,139.837,9.55,158.092,65.625c5.504,16.906,6.612,41.103-4.171,57.702c-17.952,27.634-50.012,5.19-103.858,27.279
	c-39.153,16.061-48.474,38.704-70.173,30.056c-23.687-9.441-34.351-45.099-35.554-49.29c-8.701-30.311,1.445-54.99,8.654-72.526
	C149.713,93.34,162.553,62.108,191.594,46.971z"/>
<path id="XMLID_429_" style="opacity:0.03;fill:#FFFFFF;stroke:#396AFC;stroke-miterlimit:10;" d="M230.761,285.845
	c-56.982-18.558-101.17-84.716-82.098-119.694c5.75-10.545,19.15-21.739,37.157-22.768c29.979-1.714,41.249,26.544,95.376,47.926
	c39.357,15.547,59.806,11.039,71.286,27.311c12.531,17.763-0.318,39.461-1.867,41.982c-11.2,18.234-33.478,23.156-49.308,26.652
	C290.045,289.742,261.851,295.97,230.761,285.845z"/>
<g id="XMLID_434_">
</g>
<g id="XMLID_435_">
</g>
<g id="XMLID_436_">
</g>
<g id="XMLID_437_">
</g>
<g id="XMLID_438_">
</g>
<g id="XMLID_439_">
</g>
<g id="XMLID_440_">
</g>
<g id="XMLID_441_">
</g>
<g id="XMLID_442_">
</g>
<g id="XMLID_443_">
</g>
<g id="XMLID_444_">
</g>
<g id="XMLID_445_">
</g>
<g id="XMLID_446_">
</g>
<g id="XMLID_447_">
</g>
<g id="XMLID_448_">
</g>
</svg>
