<?xml version="1.0" encoding="iso-8859-1"?>
<!-- Generator: Adobe Illustrator 19.0.0, SVG Export Plug-In . SVG Version: 6.00 Build 0)  -->
<svg version="1.1" id="Calque_1" xmlns="http://www.w3.org/2000/svg" xmlns:xlink="http://www.w3.org/1999/xlink" x="0px" y="0px"
	 viewBox="0 0 200 208.283" style="enable-background:new 0 0 200 208.283;" xml:space="preserve">
<linearGradient id="XMLID_254_" gradientUnits="userSpaceOnUse" x1="-84.3443" y1="1075.7235" x2="49.4622" y2="1075.7235" gradientTransform="matrix(1.488 -0.3118 0.1219 1.2939 -0.5845 -1291.4668)">
	<stop  offset="0" style="stop-color:#20B2AA"/>
	<stop  offset="1" style="stop-color:#0B4C65"/>
</linearGradient>
<path id="XMLID_133_" style="fill:url(#XMLID_254_);" d="M140.052,201.239c15.254-7.97,23.106-20.366,27.023-26.549
	c12.911-20.382,5.588-28.587,15.924-63.853c5.684-19.394,8.751-19.821,13.233-38.903c7.019-29.884,2.36-41.027,0.875-44.21
	c-5.65-12.113-16.239-18.104-20.993-20.711c-19.428-10.655-43.217-7.62-90.003-1.115c-47.431,6.595-57.389,12.859-63.664,18.166
	C7.575,36.642,3.251,52.428,1.665,58.216c-4.784,17.463,1.1,34.683,13.063,68.411c6.008,16.939,9.012,25.408,13.09,32.168
	c6.891,11.423,19.822,32.857,48.833,42.987C86.34,205.165,114.03,214.835,140.052,201.239z"/>
<path id="XMLID_132_" style="opacity:0.03;fill:#FFFFFF;stroke:#396AFC;stroke-miterlimit:10;" d="M103.103,170.675
	c-34.777-0.474-70.66-29.533-66.112-52.203c1.371-6.835,6.87-15.346,16.674-19.017c16.321-6.112,27.433,7.609,61.114,10.14
	c24.491,1.84,35.048-4.18,44.212,2.862c10.004,7.687,6.618,21.926,6.194,23.59c-3.068,12.035-14.568,18.598-22.74,23.262
	C136.631,162.627,122.077,170.934,103.103,170.675z"/>
<path id="XMLID_131_" style="opacity:0.03;fill:#FFFFFF;stroke:#396AFC;stroke-miterlimit:10;" d="M69.203,54.788
	c28.042-20.667,81.043-7.025,96.524,23.499c4.668,9.203,7.466,22.979,2.767,33.462c-7.824,17.452-28.215,7.447-57.119,24.928
	c-21.017,12.711-24.337,26.528-37.553,23.509c-14.427-3.296-23.73-22.791-24.795-25.087c-7.699-16.604-4.088-31.663-1.521-42.363
	C49.332,85.123,53.903,66.064,69.203,54.788z"/>
<g id="XMLID_238_">
</g>
<g id="XMLID_239_">
</g>
<g id="XMLID_240_">
</g>
<g id="XMLID_241_">
</g>
<g id="XMLID_242_">
</g>
<g id="XMLID_243_">
</g>
<g id="XMLID_244_">
</g>
<g id="XMLID_245_">
</g>
<g id="XMLID_246_">
</g>
<g id="XMLID_247_">
</g>
<g id="XMLID_248_">
</g>
<g id="XMLID_249_">
</g>
<g id="XMLID_250_">
</g>
<g id="XMLID_251_">
</g>
<g id="XMLID_252_">
</g>
</svg>
