<?xml version="1.0" encoding="iso-8859-1"?>
<!-- Generator: Adobe Illustrator 19.0.0, SVG Export Plug-In . SVG Version: 6.00 Build 0)  -->
<svg version="1.1" id="Calque_1" xmlns="http://www.w3.org/2000/svg" xmlns:xlink="http://www.w3.org/1999/xlink" x="0px" y="0px"
	 viewBox="0 0 171.304 256.311" style="enable-background:new 0 0 171.304 256.311;" xml:space="preserve">
<linearGradient id="XMLID_202_" gradientUnits="userSpaceOnUse" x1="-4160.5259" y1="-4279.6987" x2="-4023.2686" y2="-4279.6987" gradientTransform="matrix(0.5352 0.5577 -0.3113 0.2988 991.1001 3607.626)">
	<stop  offset="0" style="stop-color:#20B2AA"/>
	<stop  offset="1" style="stop-color:#0B4C65"/>
</linearGradient>
<path id="XMLID_133_" style="fill:url(#XMLID_202_);" d="M90.124,71.769c6.079,6.191,12.333,8.977,15.453,10.367
	c10.283,4.58,11.897,1.025,27.268,3.774c8.453,1.512,9.232,2.813,17.325,3.822c12.674,1.579,15.933-0.969,16.832-1.763
	c2.99-2.64,3.461-6.703,3.568-10.055c1.362-42.663,2.043-63.994-9.436-71.653c-18.086-12.067-44.081-3.407-51.298-1.003
	c-3.685,1.228-17.58,5.856-26.36,16.061c-2.285,2.655-3.499,4.849-3.762,5.327c-2.164,3.946-3.867,9.607-2.583,17.811
	C77.811,48.799,79.753,61.207,90.124,71.769z"/>
<linearGradient id="XMLID_203_" gradientUnits="userSpaceOnUse" x1="-595.2364" y1="-5488.9648" x2="-492.3371" y2="-5488.9648" gradientTransform="matrix(0.7711 0.0536 -0.0299 0.4305 295.5011 2529.6904)">
	<stop  offset="0" style="stop-color:#20B2AA"/>
	<stop  offset="1" style="stop-color:#0B4C65"/>
</linearGradient>
<path id="XMLID_132_" style="fill:url(#XMLID_203_);" d="M29.106,173.327c6.494,0.377,11.37-1.225,13.802-2.024
	c8.017-2.634,7.124-5.421,17.045-11.635c5.456-3.417,6.544-3.087,11.547-6.602c7.834-5.505,8.361-8.561,8.46-9.456
	c0.331-2.972-1.453-5.466-3.081-7.381c-20.727-24.38-31.091-36.57-41.323-35.043c-16.121,2.406-26.197,20.306-28.995,25.275
	C5.133,129-0.253,138.567,0.009,148.656c0.068,2.625,0.498,4.455,0.594,4.853c0.785,3.281,2.69,7.283,7.534,11.193
	C10.701,166.771,18.028,172.684,29.106,173.327z"/>
<linearGradient id="XMLID_204_" gradientUnits="userSpaceOnUse" x1="3339.3708" y1="-1790.1094" x2="3400.5967" y2="-1790.1094" gradientTransform="matrix(0.5418 -0.5513 0.3078 0.3025 -1240.5735 2630.3379)">
	<stop  offset="0" style="stop-color:#20B2AA"/>
	<stop  offset="1" style="stop-color:#0B4C65"/>
</linearGradient>
<path id="XMLID_131_" style="fill:url(#XMLID_204_);" d="M46.203,249.887c2.681-2.791,3.842-5.616,4.421-7.025
	c1.908-4.645,0.302-5.318,1.327-12.207c0.564-3.789,1.134-4.153,1.478-7.775c0.539-5.672-0.64-7.091-1.006-7.482
	c-1.216-1.299-3.034-1.456-4.53-1.46c-19.04-0.051-28.56-0.076-31.825,5.142c-5.144,8.221-0.944,19.699,0.222,22.886
	c0.595,1.627,2.84,7.762,7.505,11.544c1.214,0.984,2.208,1.497,2.424,1.608c1.788,0.913,4.334,1.599,7.975,0.92
	C36.122,255.677,41.629,254.649,46.203,249.887z"/>
<g id="XMLID_186_">
</g>
<g id="XMLID_187_">
</g>
<g id="XMLID_188_">
</g>
<g id="XMLID_189_">
</g>
<g id="XMLID_190_">
</g>
<g id="XMLID_191_">
</g>
<g id="XMLID_192_">
</g>
<g id="XMLID_193_">
</g>
<g id="XMLID_194_">
</g>
<g id="XMLID_195_">
</g>
<g id="XMLID_196_">
</g>
<g id="XMLID_197_">
</g>
<g id="XMLID_198_">
</g>
<g id="XMLID_199_">
</g>
<g id="XMLID_200_">
</g>
</svg>
