<?xml version="1.0" encoding="iso-8859-1"?>
<!-- Generator: Adobe Illustrator 19.0.0, SVG Export Plug-In . SVG Version: 6.00 Build 0)  -->
<svg version="1.1" id="Calque_1" xmlns="http://www.w3.org/2000/svg" xmlns:xlink="http://www.w3.org/1999/xlink" x="0px" y="0px"
	 viewBox="0 0 292.864 352.351" style="enable-background:new 0 0 292.864 352.351;" xml:space="preserve">
<linearGradient id="XMLID_527_" gradientUnits="userSpaceOnUse" x1="431.9329" y1="163.2486" x2="73.6821" y2="163.2486" gradientTransform="matrix(0.8133 0.0227 0.0227 0.9972 -62.8915 7.6426)">
	<stop  offset="0" style="stop-color:#20B2AA"/>
	<stop  offset="1" style="stop-color:#0B4C65"/>
</linearGradient>
<path id="XMLID_185_" style="fill:url(#XMLID_527_);" d="M175.676,350.664l-10.296,1.034
	c-74.838,7.514-144.358-50.684-155.278-129.988l-8.65-62.826C-9.467,79.58,42.35,9.2,117.188,1.687l10.296-1.034
	c74.838-7.513,144.358,50.684,155.278,129.988l8.65,62.826C302.331,272.771,250.514,343.15,175.676,350.664z"/>
<path id="XMLID_184_" style="opacity:0.03;fill:#FFFFFF;stroke:#396AFC;stroke-miterlimit:10;" d="M201.688,286.119
	c-37.957,2.079-79.138-29.193-75.779-56.053c1.013-8.098,6.409-18.47,16.84-23.506c17.366-8.384,30.452,6.823,67.359,7.233
	c26.836,0.298,37.924-7.543,48.414,0c11.452,8.234,8.765,25.144,8.42,27.122c-2.496,14.309-14.573,22.857-23.155,28.93
	C237.682,274.167,222.397,284.984,201.688,286.119z"/>
<path id="XMLID_183_" style="opacity:0.05;fill:#FFFFFF;stroke:#396AFC;stroke-miterlimit:10;" d="M142.834,168.114
	c-29.565-48.95-24.366-117.084,7.908-124.708c9.73-2.299,25.135,0.144,38.224,11.595c21.79,19.064,14.279,43.077,40.323,91.762
	c18.937,35.401,35.615,46.457,34.762,63.624c-0.932,18.74-21.661,22.788-24.108,23.221c-17.7,3.133-35.875-8.907-48.789-17.463
	C181.966,210.06,158.965,194.822,142.834,168.114z"/>
<g id="XMLID_511_">
</g>
<g id="XMLID_512_">
</g>
<g id="XMLID_513_">
</g>
<g id="XMLID_514_">
</g>
<g id="XMLID_515_">
</g>
<g id="XMLID_516_">
</g>
<g id="XMLID_517_">
</g>
<g id="XMLID_518_">
</g>
<g id="XMLID_519_">
</g>
<g id="XMLID_520_">
</g>
<g id="XMLID_521_">
</g>
<g id="XMLID_522_">
</g>
<g id="XMLID_523_">
</g>
<g id="XMLID_524_">
</g>
<g id="XMLID_525_">
</g>
</svg>
