<?xml version="1.0" encoding="iso-8859-1"?>
<!-- Generator: Adobe Illustrator 19.0.0, SVG Export Plug-In . SVG Version: 6.00 Build 0)  -->
<svg version="1.1" id="Calque_1" xmlns="http://www.w3.org/2000/svg" xmlns:xlink="http://www.w3.org/1999/xlink" x="0px" y="0px"
	 viewBox="0 0 1270.65 374.715" style="enable-background:new 0 0 1270.65 374.715;" xml:space="preserve">
<linearGradient id="XMLID_356_" gradientUnits="userSpaceOnUse" x1="0" y1="186.5634" x2="1269.6764" y2="186.5634">
	<stop  offset="0" style="stop-color:#20B2AA"/>
	<stop  offset="1" style="stop-color:#0B4C65"/>
</linearGradient>
<path id="XMLID_321_" style="fill:url(#XMLID_356_);" d="M0.722,61.643c-1.98,20.696-0.929,51.768,16.72,86.924
	c31.257,62.264,95.411,99.163,137.103,123.142c23.517,13.526,88.152,48.487,188.935,73.471
	c110.754,27.456,204.103,27.727,277.55,27.94c143.115,0.415,247.417-19.51,269.19-23.801c66.85-13.173,152.11-30.576,235.75-76.576
	c30.723-16.897,89.078-49.739,122.055-104.516c10.618-17.637,26.793-45.474,20.064-81.75c-4.193-22.605-10.065-53.69-41.8-68.297
	c-56.707-26.102-144.186,24.33-355.843,62.176c-79.873,14.282-151.042,26.648-245.556,25.971
	c-109.389-0.784-194.349-18.643-259.544-32.704C179.705,33.585,100.661-17.283,44.194,5.763C15.255,17.575,2.558,42.45,0.722,61.643
	z"/>
<g id="XMLID_340_">
</g>
<g id="XMLID_341_">
</g>
<g id="XMLID_342_">
</g>
<g id="XMLID_343_">
</g>
<g id="XMLID_344_">
</g>
<g id="XMLID_345_">
</g>
<g id="XMLID_346_">
</g>
<g id="XMLID_347_">
</g>
<g id="XMLID_348_">
</g>
<g id="XMLID_349_">
</g>
<g id="XMLID_350_">
</g>
<g id="XMLID_351_">
</g>
<g id="XMLID_352_">
</g>
<g id="XMLID_353_">
</g>
<g id="XMLID_354_">
</g>
</svg>
