<svg width="325" height="326" viewBox="0 0 325 326" fill="none" xmlns="http://www.w3.org/2000/svg">
<g clip-path="url(#clip0)">
<path opacity="0.1" d="M161.657 322.064C73.781 322.064 2.54355 318.209 2.54355 313.453C2.54355 308.696 73.781 304.841 161.657 304.841C249.533 304.841 320.77 308.696 320.77 313.453C320.77 318.209 249.533 322.064 161.657 322.064Z" fill="#0B4C65"/>
<path d="M125.671 289.635C125.671 289.635 123.94 291.902 126.472 295.311C129.004 298.719 131.091 301.617 130.256 303.752C130.256 303.752 126.437 297.398 123.319 297.31C120.2 297.222 122.253 293.457 125.671 289.635Z" fill="#20B2AA"/>
<path opacity="0.1" d="M125.671 289.635C125.522 289.855 125.403 290.093 125.318 290.345C122.285 293.911 120.67 297.237 123.584 297.319C126.302 297.398 129.559 302.254 130.338 303.48C130.313 303.576 130.282 303.669 130.246 303.761C130.246 303.761 126.428 297.408 123.309 297.319C120.191 297.231 122.253 293.457 125.671 289.635Z" fill="black"/>
<path d="M122.452 292.524C122.452 293.321 122.54 293.968 122.65 293.968C122.761 293.968 122.852 293.321 122.852 292.524C122.852 291.726 122.739 292.101 122.628 292.101C122.518 292.101 122.452 291.726 122.452 292.524Z" fill="#FFD037"/>
<path d="M121.348 293.476C122.048 293.857 122.657 294.087 122.71 293.99C122.764 293.892 122.237 293.504 121.537 293.122C120.837 292.741 121.115 293.018 121.061 293.122C121.008 293.226 120.648 293.094 121.348 293.476Z" fill="#FFD037"/>
<path d="M134.821 289.635C134.821 289.635 136.552 291.902 134.02 295.311C131.489 298.719 129.404 301.617 130.237 303.752C130.237 303.752 134.058 297.398 137.174 297.31C140.289 297.222 138.242 293.457 134.821 289.635Z" fill="#20B2AA"/>
<path opacity="0.1" d="M134.821 289.635C134.972 289.854 135.091 290.093 135.174 290.345C138.208 293.911 139.825 297.237 136.909 297.319C134.194 297.398 130.918 302.254 130.155 303.48C130.18 303.575 130.212 303.666 130.246 303.761C130.246 303.761 134.068 297.408 137.183 297.319C140.298 297.231 138.242 293.457 134.821 289.635Z" fill="black"/>
<path d="M138.041 292.524C138.041 293.321 137.952 293.968 137.842 293.968C137.732 293.968 137.64 293.321 137.64 292.524C137.64 291.726 137.754 292.101 137.864 292.101C137.974 292.101 138.041 291.726 138.041 292.524Z" fill="#FFD037"/>
<path d="M139.147 293.476C138.447 293.857 137.836 294.087 137.782 293.99C137.728 293.892 138.255 293.504 138.955 293.122C139.655 292.741 139.377 293.018 139.431 293.122C139.485 293.226 139.847 293.094 139.147 293.476Z" fill="#FFD037"/>
<path d="M137.489 303.465C137.489 303.465 132.646 303.313 131.183 302.276C129.72 301.239 123.732 299.993 123.369 301.645C123.007 303.298 116.092 309.935 121.559 309.979C127.027 310.023 134.263 309.128 135.72 308.242C137.177 307.356 137.489 303.465 137.489 303.465Z" fill="#A8A8A8"/>
<path opacity="0.2" d="M121.465 309.415C126.932 309.459 134.169 308.563 135.625 307.677C136.735 306.999 137.177 304.575 137.325 303.458H137.486C137.486 303.458 137.17 307.362 135.723 308.251C134.276 309.14 127.03 310.033 121.563 309.988C119.986 309.988 119.437 309.415 119.469 308.582C119.69 309.093 120.292 309.405 121.465 309.415Z" fill="black"/>
<path d="M155.733 304.901C155.155 304.428 154.732 303.792 154.522 303.075C154.368 302.353 154.677 301.499 155.367 301.218C156.143 300.922 156.972 301.461 157.603 302.003C158.234 302.545 158.949 303.167 159.772 303.05C159.349 302.667 159.032 302.18 158.853 301.638C158.674 301.096 158.639 300.517 158.751 299.957C158.787 299.725 158.885 299.507 159.034 299.326C159.466 298.866 160.245 299.061 160.762 299.424C162.402 300.578 162.859 302.807 162.869 304.809C163.033 304.087 162.894 303.334 162.897 302.602C162.9 301.871 163.105 301.026 163.729 300.638C164.117 300.431 164.552 300.329 164.991 300.341C165.728 300.313 166.548 300.389 167.053 300.925C167.683 301.596 167.516 302.719 166.971 303.447C166.425 304.176 165.599 304.649 164.839 305.156C164.228 305.52 163.706 306.017 163.313 306.61C163.269 306.694 163.231 306.781 163.2 306.871H158.58C157.547 306.346 156.589 305.683 155.733 304.901Z" fill="#0B4C65"/>
<path d="M192.444 309.876C192.444 309.876 196.878 294.833 191.615 283.762C189.375 279.132 188.698 273.9 189.685 268.852C190.173 266.461 190.879 264.12 191.795 261.858" stroke="#535461" stroke-width="0.630614" stroke-miterlimit="10"/>
<path d="M188.531 254.858C188.531 256.703 191.867 262.05 191.867 262.05C191.867 262.05 195.206 256.69 195.206 254.858C195.18 253.991 194.816 253.168 194.194 252.564C193.571 251.959 192.737 251.622 191.869 251.622C191.001 251.622 190.167 251.959 189.544 252.564C188.921 253.168 188.558 253.991 188.531 254.858Z" fill="#6C63FF"/>
<path d="M183.014 265.071C184.013 266.619 189.723 269.293 189.723 269.293C189.723 269.293 189.619 262.987 188.617 261.442C188.124 260.725 187.371 260.229 186.518 260.059C185.665 259.889 184.78 260.058 184.05 260.531C183.32 261.004 182.803 261.743 182.61 262.591C182.416 263.438 182.561 264.328 183.014 265.071Z" fill="#6C63FF"/>
<path d="M183.253 282.523C184.899 283.353 191.177 282.779 191.177 282.779C191.177 282.779 187.904 277.39 186.258 276.561C185.866 276.353 185.436 276.225 184.993 276.186C184.551 276.146 184.105 276.195 183.682 276.33C183.258 276.465 182.866 276.683 182.528 276.971C182.191 277.259 181.913 277.612 181.714 278.009C181.514 278.406 181.395 278.838 181.364 279.281C181.334 279.724 181.392 280.169 181.535 280.59C181.678 281.01 181.904 281.397 182.199 281.73C182.494 282.062 182.853 282.331 183.253 282.523Z" fill="#6C63FF"/>
<path d="M186.41 295.687C187.892 296.785 194.176 297.264 194.176 297.264C194.176 297.264 191.861 291.402 190.392 290.305C190.042 290.018 189.638 289.806 189.203 289.68C188.769 289.554 188.313 289.518 187.864 289.574C187.415 289.629 186.982 289.776 186.592 290.004C186.201 290.232 185.861 290.537 185.592 290.9C185.323 291.264 185.13 291.678 185.026 292.118C184.922 292.558 184.908 293.015 184.986 293.461C185.063 293.906 185.231 294.331 185.478 294.71C185.725 295.089 186.046 295.414 186.422 295.665L186.41 295.687Z" fill="#6C63FF"/>
<path d="M196.729 269.649C195.408 270.933 189.247 272.266 189.247 272.266C189.247 272.266 190.758 266.146 192.085 264.86C192.397 264.541 192.769 264.288 193.18 264.116C193.591 263.944 194.032 263.855 194.478 263.856C194.924 263.857 195.365 263.947 195.775 264.121C196.185 264.295 196.557 264.549 196.867 264.869C197.178 265.189 197.421 265.567 197.583 265.983C197.745 266.398 197.822 266.841 197.81 267.287C197.797 267.732 197.696 268.171 197.512 268.577C197.327 268.982 197.063 269.347 196.736 269.649H196.729Z" fill="#6C63FF"/>
<path d="M200.226 285.09C198.58 285.919 192.303 285.345 192.303 285.345C192.303 285.345 195.575 279.96 197.221 279.127C198.009 278.75 198.914 278.697 199.741 278.979C200.568 279.261 201.252 279.856 201.645 280.636C202.039 281.417 202.11 282.32 201.845 283.153C201.58 283.985 200.998 284.681 200.226 285.09Z" fill="#6C63FF"/>
<path d="M201.563 300.565C200.081 301.659 193.8 302.142 193.8 302.142C193.8 302.142 196.112 296.28 197.584 295.183C198.297 294.707 199.166 294.524 200.01 294.671C200.855 294.818 201.61 295.285 202.12 295.973C202.63 296.662 202.856 297.521 202.751 298.372C202.645 299.222 202.217 300 201.554 300.543L201.563 300.565Z" fill="#6C63FF"/>
<path d="M188.531 254.858C188.531 256.703 191.867 262.05 191.867 262.05C191.867 262.05 195.206 256.69 195.206 254.858C195.18 253.991 194.816 253.168 194.194 252.564C193.571 251.959 192.737 251.622 191.869 251.622C191.001 251.622 190.167 251.959 189.544 252.564C188.921 253.168 188.558 253.991 188.531 254.858Z" fill="#17479E"/>
<path d="M183.014 265.071C184.013 266.619 189.723 269.293 189.723 269.293C189.723 269.293 189.619 262.987 188.617 261.442C188.124 260.725 187.371 260.229 186.518 260.059C185.665 259.889 184.78 260.058 184.05 260.531C183.32 261.004 182.803 261.743 182.61 262.591C182.416 263.438 182.561 264.328 183.014 265.071Z" fill="#FFC928"/>
<path d="M183.253 282.523C184.899 283.353 191.177 282.779 191.177 282.779C191.177 282.779 187.904 277.39 186.258 276.561C185.866 276.353 185.436 276.225 184.993 276.186C184.551 276.146 184.105 276.195 183.682 276.33C183.258 276.465 182.866 276.683 182.528 276.971C182.191 277.259 181.913 277.612 181.714 278.009C181.514 278.406 181.395 278.838 181.364 279.281C181.334 279.724 181.392 280.169 181.535 280.59C181.678 281.01 181.904 281.397 182.199 281.73C182.494 282.062 182.853 282.331 183.253 282.523Z" fill="#17479E"/>
<path d="M186.41 295.687C187.892 296.785 194.176 297.264 194.176 297.264C194.176 297.264 191.861 291.402 190.392 290.305C190.042 290.018 189.638 289.806 189.203 289.68C188.769 289.554 188.313 289.518 187.864 289.574C187.415 289.629 186.982 289.776 186.592 290.004C186.201 290.232 185.861 290.537 185.592 290.9C185.323 291.264 185.13 291.678 185.026 292.118C184.922 292.558 184.908 293.015 184.986 293.461C185.063 293.906 185.231 294.331 185.478 294.71C185.725 295.089 186.046 295.414 186.422 295.665L186.41 295.687Z" fill="#FFC928"/>
<path d="M196.729 269.649C195.408 270.933 189.247 272.266 189.247 272.266C189.247 272.266 190.758 266.146 192.085 264.86C192.397 264.541 192.769 264.288 193.18 264.116C193.591 263.944 194.032 263.855 194.478 263.856C194.924 263.857 195.365 263.947 195.775 264.121C196.185 264.295 196.557 264.549 196.867 264.869C197.178 265.189 197.421 265.567 197.583 265.983C197.745 266.398 197.822 266.841 197.81 267.287C197.797 267.732 197.696 268.171 197.512 268.577C197.327 268.982 197.063 269.347 196.736 269.649H196.729Z" fill="#17479E"/>
<path d="M200.226 285.09C198.58 285.919 192.303 285.345 192.303 285.345C192.303 285.345 195.575 279.96 197.221 279.127C198.009 278.75 198.914 278.697 199.741 278.979C200.568 279.261 201.252 279.856 201.645 280.636C202.039 281.417 202.11 282.32 201.845 283.153C201.58 283.985 200.998 284.681 200.226 285.09Z" fill="#FFC928"/>
<path d="M201.563 300.565C200.081 301.659 193.8 302.142 193.8 302.142C193.8 302.142 196.112 296.28 197.584 295.183C198.297 294.707 199.166 294.524 200.01 294.671C200.855 294.818 201.61 295.285 202.12 295.973C202.63 296.662 202.856 297.521 202.751 298.372C202.645 299.222 202.217 300 201.554 300.543L201.563 300.565Z" fill="#17479E"/>
<path d="M202.928 308.93C202.928 308.93 197.53 307.858 196.093 306.43C194.655 305.002 188.178 302.501 187.459 304.286C186.741 306.071 177.748 312.143 183.865 313.215C189.982 314.287 198.252 314.644 200.05 313.928C201.847 313.212 202.928 308.93 202.928 308.93Z" fill="#A8A8A8"/>
<path opacity="0.2" d="M183.855 312.547C189.969 313.619 198.243 313.975 200.04 313.263C201.409 312.717 202.361 310.11 202.736 308.89L202.928 308.931C202.928 308.931 201.847 313.216 200.05 313.928C198.252 314.641 189.979 314.284 183.865 313.216C182.099 312.9 181.595 312.178 181.784 311.261C181.926 311.857 182.541 312.317 183.855 312.547Z" fill="black"/>
</g>
<path d="M215.638 80.8549C216.002 81.2199 214.016 82.9391 213.735 83.137C213.07 83.6106 212.288 83.8919 211.474 83.9501C210.66 84.0082 209.846 83.8409 209.121 83.4665C208.395 83.0921 207.787 82.5251 207.363 81.8277C206.939 81.1304 206.716 80.3297 206.717 79.5136C206.757 78.4598 207.147 77.4494 207.825 76.6418C208.503 75.8341 209.431 75.2753 210.462 75.0534C210.085 73.5144 210.281 71.8908 211.013 70.4857C211.746 69.0805 212.964 67.9897 214.441 67.4167C215.918 66.8437 217.554 66.8276 219.042 67.3715C220.53 67.9153 221.769 68.982 222.529 70.3725C224.521 68.691 227.036 67.756 229.643 67.7282C232.25 67.7003 234.784 68.5815 236.812 70.2201C238.839 71.8587 240.232 74.1524 240.752 76.7068C241.271 79.2613 240.884 81.9169 239.658 84.2172C241.401 83.5157 243.327 83.4098 245.137 83.9159C246.946 84.422 248.538 85.5117 249.664 87.0157C250.79 88.5197 251.388 90.3536 251.365 92.2324C251.341 94.1112 250.697 95.9296 249.534 97.4049C250.979 97.2327 252.444 97.3783 253.827 97.8316C255.21 98.2849 256.477 99.0349 257.54 100.029C258.949 101.225 260.069 102.725 260.815 104.417C261.56 106.108 261.912 107.947 261.843 109.795C261.666 114.227 257.634 119.503 253.233 119.242C248.286 118.275 243.406 116.991 238.623 115.398C237.2 115.031 235.908 114.273 234.893 113.21C231.542 109.075 230.666 100.355 230.676 95.5316C230.676 93.3664 231.086 91.2238 231.127 89.0861C230.091 89.0771 229.072 88.833 228.144 88.3722C227.217 87.9114 226.407 87.246 225.774 86.4262C224.681 84.9471 224.154 83.1254 224.289 81.2912C223.045 82.2948 221.476 82.805 219.88 82.7246C218.284 82.6441 216.774 81.9785 215.638 80.8549Z" fill="#FFC928"/>
<path d="M207.092 107.79C208.962 105.038 211.299 102.635 213.999 100.691C213.793 100.84 216.432 103.124 216.7 103.297C217.524 103.854 219.005 104.121 219.603 104.905C220.039 105.874 220.234 106.935 220.171 107.996C220.347 109.589 220.475 111.19 220.554 112.798C216.327 112.598 212.123 112.049 207.987 111.155C206.458 110.967 205.744 109.725 207.092 107.79Z" fill="#FFC928"/>
<path d="M82.3798 69.9883C79.9233 71.3079 77.8339 73.2184 76.3003 75.5473C74.7667 77.8763 73.8372 80.5505 73.5956 83.3285C73.5865 83.5248 73.5021 83.7101 73.36 83.8458C73.2179 83.9815 73.029 84.0573 72.8324 84.0573C72.6359 84.0573 72.447 83.9815 72.3049 83.8458C72.1627 83.7101 72.0784 83.5248 72.0693 83.3285C72.0973 80.2505 73.0436 77.2508 74.7868 74.7138C76.5301 72.1768 78.991 70.218 81.8543 69.0882C82.4512 68.853 82.9913 69.6818 82.3798 69.9883Z" fill="#20B2AA"/>
<path d="M67.7842 81.5719C67.6645 80.3199 67.6526 79.0599 67.7485 77.8059C67.8231 76.7922 69.398 76.7792 69.3364 77.8059C69.2643 79.1204 69.0776 80.4261 68.7784 81.7082C68.6341 82.2985 67.8377 82.1088 67.7842 81.5719Z" fill="#20B2AA"/>
<path d="M126.569 134.865C128.009 133.243 133.778 129.897 136.772 125.584C145.959 112.348 148.802 96.5957 148.842 80.4772C148.794 80.4545 144.139 77.149 140.85 76.9982C138.586 76.9375 136.344 77.452 134.333 78.4936C134.404 80.5141 134.189 82.5345 133.694 84.4946C131.099 98.9832 123.821 115.218 109.456 118.354C109.385 118.373 109.31 118.379 109.237 118.37C109.164 118.361 109.093 118.337 109.028 118.301C108.964 118.264 108.908 118.216 108.862 118.157C108.817 118.099 108.783 118.032 108.763 117.961C108.744 117.89 108.738 117.815 108.747 117.742C108.756 117.669 108.78 117.598 108.816 117.534C108.853 117.469 108.901 117.413 108.96 117.367C109.018 117.322 109.085 117.288 109.156 117.269C116.477 114.213 122.403 108.549 125.785 101.374C131.499 89.8778 131.191 82.1445 132.713 77.9746C133.386 76.1288 138.738 74.5588 141.232 74.6983C143.865 74.8459 149.689 77.6502 149.973 78.6233C153.184 89.6653 149.947 102.376 145.957 113.022C143.989 118.211 141.37 123.129 138.162 127.659C134.568 132.779 129.337 136.238 127.198 136.341C127.026 136.343 126.858 136.294 126.714 136.2C126.57 136.106 126.457 135.971 126.389 135.813C126.322 135.655 126.303 135.481 126.335 135.312C126.367 135.143 126.448 134.987 126.569 134.865Z" fill="#20B2AA"/>
<path d="M109.034 118.529C111.584 122.468 108.399 128.328 104.083 129.28C99.8738 130.21 94.3382 128.273 93.0293 123.879C92.799 123.106 93.9246 122.361 94.4647 123.047C95.3978 124.41 96.6728 125.504 98.1619 126.219C99.651 126.934 101.302 127.244 102.949 127.12C107.211 126.624 108.085 122.428 107.815 118.848C107.763 118.173 108.71 118.027 109.034 118.529Z" fill="#20B2AA"/>
<path d="M43.4621 178.374C44.0573 168.117 45.0418 160.286 49.7275 150.315C54.9338 139.231 63.1131 128.257 73.7886 121.912C79.2771 118.649 85.7988 116.861 92.0707 118.72C92.6951 118.905 92.6108 119.954 91.9085 119.899C76.2587 118.684 64.0117 130.985 56.2444 143.276C48.6717 155.27 46.6443 164.198 45.929 176.835C45.9094 180.685 45.5916 184.528 44.9786 188.329C44.7564 189.359 43.3242 189.032 43.2415 188.091C43.0789 184.851 43.1526 181.603 43.4621 178.374Z" fill="#20B2AA"/>
<path d="M46.4545 187.938C48.4046 188.432 50.4003 188.724 52.4102 188.811C53.4044 188.78 54.637 188.362 55.7221 188.362C56.1049 181.233 60.9787 169.775 65.2914 162.851C70.0095 155.271 76.3463 147.623 84.3018 143.31C84.8646 143.003 85.4987 143.759 85.004 144.21L84.9149 144.299C85.0081 144.358 85.085 144.439 85.1384 144.535C85.1917 144.631 85.2197 144.739 85.2198 144.849C85.5344 162.515 79.5187 180.124 70.6972 195.081C69.8051 196.594 68.7768 199.183 67.1403 199.97C67.0075 200.035 66.8607 200.066 66.713 200.061C66.5652 200.056 66.421 200.014 66.2929 199.941C66.1648 199.867 66.0568 199.763 65.9783 199.637C65.8998 199.512 65.8533 199.369 65.8428 199.222C65.9061 197.503 67.4761 195.891 68.3373 194.447C76.5604 180.661 83.5832 161.406 83.8606 145.293C73.9442 154.714 66.6683 162.056 61.3696 176.021C59.7752 180.223 59.0875 184.571 57.8014 188.834C57.8 189.05 57.7386 189.262 57.6241 189.445C57.5095 189.629 57.3463 189.777 57.1526 189.873C53.5471 191.314 48.2321 192.006 45.6079 189.366C44.964 188.723 45.663 187.809 46.4545 187.938Z" fill="#20B2AA"/>
<path d="M68.3649 199.699C74.1421 202.651 77.5238 207.808 90.3012 208.606C99.0596 209.15 108.201 208.462 116.302 204.912C116.302 204.856 120.01 198.852 122.303 186.511C127.891 156.54 125.005 147.099 121.142 128.479C121.02 127.898 121.909 127.42 122.172 128.03C124.603 134.166 126.185 140.605 126.875 147.168C128.603 160.391 127.85 173.819 124.655 186.766C123.074 193.249 120.866 199.563 118.062 205.619C110.286 211.441 98.7725 211.553 89.4595 210.911C85.1903 210.64 81.0066 209.591 77.1151 207.815C73.8908 206.323 69.0056 204.049 67.3836 200.664C67.306 200.527 67.2756 200.369 67.2972 200.214C67.3189 200.058 67.3913 199.914 67.5032 199.804C67.6152 199.694 67.7603 199.624 67.9162 199.605C68.072 199.586 68.2298 199.619 68.3649 199.699Z" fill="#20B2AA"/>
<path d="M163.529 9.43903C163.751 8.46588 165.091 8.77729 165.167 9.66447C165.584 14.4718 164.557 19.6457 163.869 24.4044C163.145 29.4867 162.153 34.5272 160.895 39.5044C160.665 40.4045 159.356 40.0169 159.508 39.1216C163.342 16.5754 162.016 16.0434 163.529 9.43903Z" fill="#FFC928"/>
<path d="M146.152 37.0196C137.418 27.3789 131.681 22.4321 128.823 18.8542C128.317 18.2216 128.971 17.062 129.774 17.6248C135.551 21.6795 142.965 30.6 147.25 36.1681C147.735 36.8038 146.682 37.6051 146.152 37.0196Z" fill="#FFC928"/>
<path d="M134.351 38.0057C128.981 35.6815 122.997 33.7093 118.17 30.3535C117.471 29.867 117.872 28.6051 118.787 28.8938C124.395 30.7055 129.633 34.2202 134.733 37.1072C135.199 37.378 134.884 38.236 134.351 38.0057Z" fill="#FFC928"/>
<path d="M179.735 31.9431C182.336 28.3307 185.206 24.9198 188.321 21.7396C188.467 21.6092 188.654 21.5341 188.849 21.5274C189.045 21.5206 189.237 21.5827 189.391 21.7027C189.545 21.8228 189.653 21.9932 189.694 22.1843C189.736 22.3754 189.709 22.5751 189.619 22.7485C187.259 26.2695 184.633 29.6051 181.766 32.7265C178.937 36.1584 176.022 39.4801 173.111 42.8618C172.571 43.4878 171.436 42.6315 171.95 41.9616C174.524 38.6091 177.075 35.2404 179.735 31.9431Z" fill="#FFC928"/>
<path d="M184.372 48.3212C189.093 45.3825 194.349 43.4064 199.837 42.5067C200.56 42.411 200.606 43.4976 199.999 43.7166C194.917 45.3437 189.965 47.3497 185.183 49.7177C185 49.8024 184.791 49.8156 184.599 49.7548C184.406 49.694 184.243 49.5634 184.142 49.3887C184.04 49.2141 184.008 49.0078 184.05 48.8104C184.093 48.6129 184.208 48.4385 184.372 48.3212Z" fill="#FFC928"/>
<path d="M272.541 309.134C274.881 308.648 276.492 309.471 278.684 307.744C281.906 305.207 285.445 296.705 287.587 293.633C287.944 293.123 288.851 293.415 288.649 294.084C287.85 296.756 283.283 308.682 277.685 311.079C276.3 311.422 274.866 311.529 273.446 311.393C272.581 312.11 281.656 314.827 283.339 314.748C285.555 314.498 287.753 314.119 289.924 313.612C294.449 309.945 298.477 303.232 301.244 298.12C300.496 292.381 299.409 291.23 300.433 291.004C300.54 290.982 300.652 290.992 300.754 291.033C300.856 291.075 300.943 291.146 301.004 291.238C301.753 292.351 303.295 296.937 302.723 297.797C301.827 301.43 300.209 304.846 297.966 307.841C296.182 310.232 292.868 316.026 284.149 316.96C279.904 317.416 271.446 314.577 270.593 313.648C268.977 311.885 270.492 309.556 272.541 309.134Z" fill="#FFC928"/>
<path d="M257.324 80.2906C256.543 77.0328 255.228 73.927 253.431 71.0992C251.495 68.3876 249.302 65.869 246.882 63.5784C246.766 63.458 246.697 63.3 246.688 63.133C246.678 62.966 246.729 62.8013 246.831 62.6688C246.933 62.5363 247.08 62.4449 247.244 62.4112C247.407 62.3775 247.578 62.4038 247.724 62.4852C253.699 65.8783 257.293 73.4558 258.67 79.9029C258.86 80.7934 257.535 81.168 257.324 80.2906Z" fill="#FFC928"/>
<path d="M259.208 66.149C261.767 68.865 263.297 72.3889 263.534 76.1124C263.631 76.972 262.297 76.9509 262.183 76.1124C261.542 72.7929 260.189 69.6519 258.216 66.9064C258.142 66.7739 258.119 66.6194 258.15 66.4711C258.181 66.3228 258.264 66.1906 258.385 66.0986C258.505 66.0067 258.655 65.9612 258.806 65.9705C258.957 65.9797 259.1 66.0431 259.208 66.149Z" fill="#FFC928"/>
<path d="M101.517 103.748C99.7035 103.442 98.6103 101.338 99.7862 101.046C100.359 100.903 100.453 101.477 102.013 101.951C102.646 102.064 103.292 102.081 103.93 102.001C104.095 102.003 104.252 102.07 104.367 102.188C104.482 102.305 104.547 102.463 104.546 102.627C104.542 103.247 103.242 104.144 101.517 103.748Z" fill="#0B4C65"/>
<path d="M105.236 110.108C105.609 110.864 107.044 115.442 107.506 116.931C107.695 117.528 106.764 117.94 106.48 117.38C105.781 116 103.688 111.736 103.429 110.958C98.7741 112.477 93.9992 109.38 93.5077 105.823C93.4234 105.202 94.1987 104.475 94.7193 105.116C96.3607 107.137 97.9242 109.136 100.808 109.099C102.124 109.067 103.4 108.639 104.469 107.87C105.538 107.102 106.35 106.029 106.799 104.791C108.692 100.058 107.579 94.4337 105.701 89.8907C105.539 89.4804 106.151 89.2971 106.371 89.6069C110.609 95.535 111.42 106.386 105.236 110.108Z" fill="#0B4C65"/>
<path d="M103.343 93.9925C103.019 93.6178 103.439 92.9642 103.901 93.2675C105.325 94.2001 107.307 95.7474 107.307 97.6693C107.307 99.1404 105.242 100.709 104.039 99.3659C103.945 99.2622 103.894 99.1276 103.894 98.988C103.894 98.8484 103.945 98.7137 104.039 98.6101C104.731 97.8332 105.868 97.9889 105.151 96.6638C104.647 95.7108 104.04 94.8152 103.343 93.9925Z" fill="#0B4C65"/>
<path d="M99.8754 92.0462C100.016 91.9849 100.175 91.9777 100.321 92.0259C100.467 92.074 100.59 92.1742 100.667 92.3073C100.97 92.6663 101.219 93.0679 101.405 93.4994C101.472 93.6859 101.463 93.8915 101.379 94.0712C101.295 94.2508 101.143 94.3899 100.957 94.4579C99.3045 94.7499 99.2672 92.3138 99.8754 92.0462Z" fill="#0B4C65"/>
<path d="M98.3491 93.5172C98.3102 93.6403 98.237 93.7497 98.1381 93.8327C98.0392 93.9156 97.9188 93.9687 97.7908 93.9858C97.6629 94.0028 97.5327 93.983 97.4156 93.9287C97.2985 93.8745 97.1992 93.788 97.1294 93.6794C96.9009 93.2046 96.7985 92.6789 96.8323 92.153C96.8661 91.6271 97.035 91.1189 97.3225 90.6772C97.5176 90.2085 97.8459 89.8073 98.2669 89.5233C98.6878 89.2393 99.1827 89.0851 99.6905 89.0797C99.8157 89.0827 99.9358 89.1304 100.029 89.214C100.123 89.2976 100.183 89.4118 100.2 89.536C100.217 89.6602 100.189 89.7863 100.121 89.8917C100.053 89.9971 99.9499 90.0749 99.8299 90.1112C99.2412 90.2831 98.8389 91.2173 98.6816 91.7493C98.5243 92.2813 98.5746 92.9495 98.3491 93.5172Z" fill="#0B4C65"/>
<path d="M94.7209 87.5907C95.4086 91.3373 92.5735 97.6741 87.9883 97.3838C90.0691 100.253 91.535 103.522 92.2945 106.984C93.453 110.574 93.7415 114.387 93.1363 118.11C92.9887 118.83 92.0253 118.559 91.9539 117.948C91.6682 114.313 91.0333 110.713 90.0579 107.2C89.354 104.877 84.7218 98.2386 82.975 92.8376C82.4287 90.8544 82.4851 88.7535 83.1372 86.8025C83.5559 85.5062 84.4279 84.4044 85.5934 83.6992C86.7589 82.994 88.1396 82.7328 89.4821 82.9634C90.1001 80.4251 93.9748 78.3215 97.6971 79.8169C98.9525 77.616 102.054 77.1261 104.52 77.2218C107.643 77.3467 109.386 80.0342 109.471 82.9958C109.668 89.7868 99.9013 89.1267 94.7209 87.5907Z" fill="#0B4C65"/>
<path d="M148.226 74.5068C152.09 74.0916 152.094 68.556 152.156 65.6706C152.221 62.5566 151.335 59.5512 151.355 56.4679C151.359 56.3016 151.417 56.1411 151.52 56.0103C151.623 55.8795 151.765 55.7854 151.926 55.7418C152.086 55.6983 152.257 55.7077 152.412 55.7687C152.566 55.8297 152.698 55.9389 152.785 56.0803C154.933 60.054 156.354 77.5609 148.051 75.793C147.263 75.6259 147.534 74.5814 148.226 74.5068Z" fill="#0B4C65"/>
<path d="M148.896 65.1581C148.247 61.332 146.875 57.6876 146.195 53.9069C146.156 53.7411 146.177 53.5667 146.254 53.4147C146.331 53.2626 146.46 53.1428 146.617 53.0764C146.774 53.0099 146.949 53.0012 147.112 53.0517C147.274 53.1022 147.414 53.2086 147.506 53.3522C149.427 56.9234 150.337 60.9508 150.138 65.0008C150.145 65.6982 149.018 65.8831 148.896 65.1581Z" fill="#0B4C65"/>
<path d="M142.658 52.4521C145.452 55.9291 146.903 60.2949 146.745 64.7527C146.744 64.9116 146.685 65.0646 146.58 65.1838C146.475 65.3029 146.33 65.3803 146.173 65.4018C146.015 65.4232 145.856 65.3873 145.722 65.3006C145.589 65.2139 145.492 65.0822 145.448 64.9295C144.814 62.9426 144.355 60.9055 143.678 58.9284C143.002 56.9513 142.121 55.0877 141.594 53.0766C141.565 52.9428 141.579 52.8032 141.633 52.6778C141.688 52.5524 141.781 52.4475 141.899 52.3782C142.018 52.3089 142.154 52.2787 142.291 52.292C142.427 52.3053 142.556 52.3613 142.658 52.4521Z" fill="#0B4C65"/>
<path d="M134.67 53.8925C134.245 53.2778 135.058 52.6274 135.634 52.929C139.787 55.1073 142.191 60.4466 143.094 64.8031C143.125 64.9463 143.1 65.0959 143.024 65.2212C142.948 65.3464 142.827 65.4378 142.686 65.4765C142.544 65.5151 142.394 65.4981 142.265 65.429C142.135 65.3598 142.038 65.2438 141.991 65.1047C139.398 58.4273 136.667 56.7827 134.67 53.8925Z" fill="#0B4C65"/>
<path d="M133.997 62.2906C137.872 63.5654 140.696 68.3922 141.571 72.1843C141.612 72.3613 141.58 72.547 141.483 72.7006C141.386 72.8542 141.233 72.9631 141.056 73.0033C140.057 73.2304 140.198 71.748 136.839 67.4888C135.552 66.1489 134.367 64.7155 133.292 63.2005C133.234 63.0931 133.209 62.9715 133.22 62.8502C133.23 62.729 133.275 62.6133 133.35 62.5171C133.424 62.421 133.525 62.3484 133.64 62.3082C133.755 62.268 133.879 62.2619 133.997 62.2906Z" fill="#0B4C65"/>
<path d="M58.5783 202.232C58.8335 203.124 58.7851 204.075 58.4407 204.937C58.0964 205.798 57.4755 206.521 56.6758 206.991C53.3719 208.895 48.3619 208.423 44.7969 207.701C41.3763 207.009 38.4974 205.873 38.4974 201.927C38.816 197.669 40.6675 193.672 43.7086 190.674C43.8895 190.504 44.1252 190.404 44.3734 190.392C44.6216 190.379 44.8661 190.456 45.0628 190.608C45.2596 190.76 45.3957 190.977 45.4469 191.22C45.498 191.463 45.4608 191.717 45.3419 191.935C44.033 194.483 42.0559 196.518 41.2336 199.348C40.8962 200.505 40.4048 202.602 41.1573 203.754C41.9099 204.905 44.1562 205.213 45.41 205.47C48.2423 206.075 51.1695 206.085 54.0061 205.5C58.2539 204.594 55.8924 200.959 56.0043 198.061C56.008 197.921 56.061 197.787 56.154 197.683C56.247 197.579 56.3739 197.511 56.5123 197.492C56.6506 197.472 56.7913 197.502 56.9094 197.577C57.0275 197.651 57.1154 197.765 57.1575 197.898C57.391 198.456 57.6441 199.078 57.8906 199.726C60.4856 200.082 59.3503 197.131 58.9351 196.012C58.456 194.706 57.8372 193.455 57.0894 192.282C56.739 191.737 57.49 191.262 57.9311 191.633C60.0493 193.403 62.3103 196.405 61.9048 199.361C61.6923 200.923 60.012 202.521 58.5783 202.232Z" fill="#0B4C65"/>
<path d="M22.4098 287.248C22.4909 287.126 38.3596 266.833 44.3055 256.193C57.6182 232.332 63.6225 211.915 67.5702 203.299C67.7989 202.8 68.5109 203.173 68.4152 203.655C66.6409 212.661 59.7153 229.707 55.9622 238.117C49.1761 253.322 36.6988 276.527 24.6821 286.774C26.4985 288.934 28.9132 290.508 31.6222 291.298C36.3582 286.685 55.7741 274.054 79.1101 237.141C83.4795 230.228 87.2197 223.08 91.3961 216.135C91.6669 215.686 92.4893 215.981 92.2962 216.505C87.8765 228.549 80.1757 240.238 72.6955 250.907C72.9339 251.569 74.0465 256.47 74.0465 256.47C80.6808 256.344 87.2941 255.683 93.8225 254.495C100.367 253.237 106.749 251.249 112.851 248.568C120.054 245.576 120.547 243.628 120.211 230.637C119.897 223.184 118.87 215.778 117.146 208.52C117.123 208.438 117.116 208.352 117.127 208.267C117.137 208.182 117.164 208.1 117.207 208.026C117.249 207.951 117.305 207.886 117.373 207.833C117.44 207.781 117.517 207.742 117.6 207.719C117.682 207.696 117.768 207.69 117.853 207.7C117.938 207.711 118.02 207.738 118.094 207.78C118.169 207.822 118.234 207.879 118.287 207.946C118.339 208.014 118.378 208.091 118.401 208.173C121.055 215.948 122.457 224.096 122.555 232.31C122.688 241.669 122.699 246.583 116.114 249.692C104.123 255.351 86.433 259.722 73.5908 258.027C72.336 264.627 71.8754 271.353 72.2186 278.061C72.2095 278.278 72.1387 278.487 72.0145 278.664C71.8903 278.842 71.7179 278.98 71.5178 279.063C71.3176 279.145 71.098 279.169 70.8848 279.131C70.6716 279.093 70.4737 278.995 70.3145 278.848C66.2806 274.398 63.9749 268.65 63.8155 262.647C51.2781 278.18 37.0118 290.501 32.7916 293.027C32.7916 293.053 33.781 304.127 40.3935 306.24C40.9936 306.359 41.5633 306.599 42.068 306.944C42.5726 307.29 43.0017 307.735 43.3292 308.252C44.8246 311.19 27.7069 310.602 27.6518 310.574C25.918 309.706 20.2315 290.482 22.4098 287.248Z" fill="#0B4C65"/>
<path d="M96.917 213.652C97.9216 220.891 99.625 228.016 102.003 234.927C102.078 235.222 102.035 235.536 101.884 235.801C101.733 236.066 101.485 236.262 101.192 236.349C94.2019 238.487 87.6932 241.996 80.7563 244.167C80.0783 244.379 79.7977 243.464 80.307 243.091C84.751 239.831 94.6268 235.955 99.4569 234.458C97.4602 227.735 96.2402 220.805 95.8206 213.804C95.7816 213.178 96.8326 213.018 96.917 213.652Z" fill="#0B4C65"/>
<path d="M163.394 55.297C163.508 55.19 163.653 55.1225 163.808 55.1047C163.963 55.0868 164.12 55.1195 164.255 55.1978C164.39 55.2762 164.496 55.3961 164.558 55.5396C164.619 55.6831 164.633 55.8426 164.596 55.9944C163.866 58.8977 161.8 61.3857 162.079 66.8904C162.26 70.6084 163.51 74.1951 165.679 77.2204C166.153 77.8691 165.083 78.7044 164.559 78.0849C161.842 75.0846 160.17 71.2852 159.794 67.2554C159.487 63.366 160.335 58.0413 163.394 55.297Z" fill="#17479E"/>
<path d="M165.949 64.7524C165.922 64.9117 165.839 65.0563 165.715 65.1605C165.592 65.2647 165.436 65.3219 165.274 65.3219C165.112 65.3219 164.956 65.2647 164.833 65.1605C164.709 65.0563 164.626 64.9117 164.599 64.7524C164.4 60.4365 165.19 54.6804 168.654 51.5922C168.76 51.4936 168.894 51.4316 169.038 51.4156C169.181 51.3995 169.326 51.4302 169.451 51.503C169.576 51.5759 169.674 51.687 169.73 51.82C169.787 51.9529 169.799 52.1006 169.765 52.241C168.831 55.3599 166.544 57.908 165.949 64.7524Z" fill="#17479E"/>
<path d="M169.721 63.5704C169.624 64.4706 168.241 64.5322 168.25 63.5704C168.296 59.235 169.47 52.6647 173.557 50.2707C173.677 50.2042 173.813 50.1742 173.949 50.1842C174.086 50.1942 174.216 50.244 174.325 50.3273C174.433 50.4105 174.515 50.5237 174.56 50.6529C174.605 50.7821 174.611 50.9215 174.577 51.0541C173.473 54.0011 170.503 56.374 169.721 63.5704Z" fill="#17479E"/>
<path d="M175.117 58.2943C172.819 65.0123 174.293 66.9877 173.02 66.9845C172.864 66.9845 172.714 66.9225 172.604 66.8121C172.494 66.7017 172.432 66.5519 172.432 66.3958C172.1 63.4891 172.359 60.5455 173.192 57.7412C173.805 55.0232 175.162 52.5296 177.112 50.54C177.669 50.0842 178.856 50.4945 178.512 51.3509C177.542 53.7692 175.972 55.8014 175.117 58.2943Z" fill="#17479E"/>
<path d="M175.654 74.2505C175.549 74.7971 174.671 74.6689 174.681 74.1191C174.791 69.8567 176.079 64.5677 180.014 62.2321C180.16 62.1509 180.328 62.1195 180.493 62.1427C180.658 62.166 180.811 62.2425 180.929 62.3608C181.047 62.479 181.123 62.6325 181.145 62.7978C181.168 62.9631 181.135 63.1313 181.054 63.2766C179.711 65.6414 176.778 68.3824 175.654 74.2505Z" fill="#17479E"/>
<path d="M166.4 79.426C167.167 81.3102 167.639 83.3016 167.799 85.3298C169.227 91.9046 171.683 98.213 175.077 104.022C179.508 111.97 193.531 124.33 193.531 124.33C193.531 124.33 196.45 118.752 196.888 107.991C187.5 102.769 180.143 94.5379 176.005 84.6242C174.733 82.0268 173.91 79.2328 173.572 76.3606C173.526 75.3972 175.077 74.8928 175.481 75.8432C176.869 79.113 179.211 92.5959 193.051 102.79C200.845 108.41 210.111 111.631 219.71 112.056C219.589 111.008 219.71 109.947 219.615 108.906C219.519 107.865 219.29 106.705 219.12 105.602C210.624 103.867 209.568 88.8964 215.727 82.6115C216.333 81.9903 217.208 82.7737 216.862 83.4905C214.822 87.8081 213.213 91.8645 214.084 96.7529C214.318 99.2122 215.5 101.484 217.38 103.086C218.527 103.798 219.883 104.097 221.224 103.934C222.564 103.77 223.809 103.154 224.751 102.186C225.158 101.805 225.899 102.308 225.562 102.807C225.013 103.703 224.245 104.444 223.329 104.959C222.414 105.474 221.382 105.747 220.331 105.751C221.132 107.779 221.29 110.004 220.782 112.124C222.592 112.181 224.404 112.122 226.206 111.949C227.104 111.854 236.841 112.623 241.233 115.395C243.484 115.121 250.001 117.736 251.819 118.639C257.353 121.381 262.414 124.988 266.81 129.324C267.716 130.221 269.211 131.36 269.128 132.795C268.839 134.06 268.082 135.169 267.008 135.899C271.628 139.982 275.107 146.351 274.08 152.49C272.85 159.839 266.317 166.214 259.916 169.557C259.756 169.645 259.569 169.672 259.391 169.635C259.212 169.598 259.053 169.497 258.941 169.353C258.83 169.208 258.774 169.028 258.783 168.846C258.793 168.664 258.867 168.491 258.993 168.359C263.687 163.404 269.882 160.098 271.595 152.939C273.173 146.349 269.044 141.949 265.659 137.044C263.963 138.819 262.085 140.409 260.055 141.788C259.913 141.866 259.75 141.894 259.59 141.871C259.431 141.848 259.283 141.773 259.169 141.659C259.055 141.544 258.981 141.396 258.958 141.236C258.936 141.076 258.965 140.913 259.043 140.772C259.93 139.202 266.655 132.858 266.496 132.196C266.236 131.111 260.086 126.153 258.587 125.06C254.117 121.808 249.2 119.218 243.99 117.369C248.052 120.578 251.279 124.721 253.397 129.444C256.018 135.351 256.547 141.878 256.748 148.27C257.893 184.6 261.508 181.833 264.327 190.811C264.378 190.931 267.477 203.89 267.928 205.774C274.545 228.145 278.795 242.626 289.459 266.166C294.99 278.373 297.792 282.963 300.288 288.724C300.679 289.624 299.041 292.008 294.37 293.346C293.019 293.734 288.794 293.346 287.582 291.825C286.371 290.304 280.566 282.622 277.254 278.089C273.199 272.548 250.58 237.926 244.848 225.349C241.929 218.948 237.978 205.27 237.198 204.803C236.901 204.626 236.521 204.965 236.417 205.289C236.314 205.614 237.965 212.671 238.704 215.858C239.157 217.804 239.798 222.159 239.155 223.006C237.703 224.718 236.136 226.33 234.465 227.829C237.951 229.099 241.317 230.679 244.521 232.551C248.361 235.342 251.446 240.822 253.842 244.843C254.69 246.265 258.698 254.088 259.368 255.645C259.468 255.82 259.526 256.016 259.537 256.217C259.549 256.419 259.513 256.62 259.433 256.805C259.353 256.99 259.231 257.154 259.077 257.284C258.922 257.413 258.74 257.505 258.544 257.552C252.361 257.217 246.009 255.147 240.127 253.335C233.67 251.368 227.367 248.929 221.269 246.037C215.991 243.515 210.13 240.514 206.565 235.717C201.929 229.474 216.123 190.657 221.368 189.727C221.819 189.648 228.162 196.969 253.467 193.112C256.386 192.666 258.711 190.767 261.52 189.94C257.465 184.21 256.592 176.716 255.781 169.979C253.349 149.793 256.917 134.874 246.793 123.247C241.67 117.422 234.511 113.78 226.787 113.069C226.616 113.069 218.761 117.363 198.22 108.729C198.411 112.134 198.167 115.549 197.492 118.892C197.114 120.744 195.078 127.543 194.021 128.695C201.125 134.618 205.66 135.993 209.977 138.412C210.149 138.598 210.273 138.825 210.337 139.07C211.322 145.055 220.03 181.128 220.777 184.855C220.827 185.119 220.776 185.391 220.634 185.619C220.492 185.846 220.27 186.012 220.011 186.083C219.753 186.154 219.477 186.125 219.238 186.002C219 185.878 218.817 185.67 218.726 185.418C217.316 181.653 209.027 143.148 209.275 139.596C202.721 138.46 196.664 133.874 192.306 129.113C191.982 128.755 192.649 126.552 193.036 125.626C192.874 125.751 178.137 113.499 173.304 105.514C170.92 101.571 168.968 97.3819 167.485 93.0193C166.74 90.8362 164.358 81.747 164.956 79.679C164.997 79.5311 165.079 79.3978 165.193 79.2946C165.306 79.1913 165.447 79.1225 165.598 79.096C165.749 79.0695 165.905 79.0864 166.047 79.1449C166.188 79.2033 166.311 79.3008 166.4 79.426Z" fill="#17479E"/>
<path d="M218.132 95.0841C217.175 95.775 214.587 96.8828 214.265 94.9219C214.124 94.0606 216.041 90.2962 216.659 89.3668C216.945 88.9403 217.767 89.2046 217.559 89.7415C217.12 90.8768 216.079 94.1466 216.1 94.179C216.121 94.2115 217.039 93.7817 217.525 93.6308C218.437 93.3438 218.823 94.5861 218.132 95.0841Z" fill="#17479E"/>
<path d="M221.58 91.3519C221.346 90.6204 221.346 89.8339 221.58 89.1023C221.629 88.9443 221.728 88.8061 221.861 88.708C221.994 88.6099 222.155 88.5569 222.321 88.5569C222.486 88.5569 222.647 88.6099 222.78 88.708C222.914 88.8061 223.012 88.9443 223.061 89.1023C223.295 89.8339 223.295 90.6204 223.061 91.3519C222.985 91.4807 222.877 91.5875 222.747 91.6616C222.617 91.7358 222.47 91.7748 222.321 91.7748C222.171 91.7748 222.024 91.7358 221.894 91.6616C221.764 91.5875 221.656 91.4807 221.58 91.3519Z" fill="#17479E"/>
<path d="M224.213 88.2023C223.126 86.2739 221.695 86.2901 220.927 85.5197C220.852 85.4434 220.799 85.3492 220.772 85.2462C220.745 85.1432 220.745 85.035 220.773 84.9321C220.8 84.8292 220.853 84.7351 220.928 84.659C221.002 84.583 221.095 84.5274 221.197 84.4979C223.1 84.107 224.633 86.2917 225.22 87.7839C225.437 88.3353 224.5 88.7149 224.213 88.2023Z" fill="#17479E"/>
<path d="M224.811 95.8528C223.747 99.7762 219.814 101.599 217.929 100.287C217.809 100.21 217.713 100.101 217.652 99.9712C217.592 99.8417 217.57 99.6977 217.588 99.556C217.606 99.4143 217.665 99.2807 217.756 99.1709C217.848 99.0612 217.968 98.9797 218.105 98.9361C219.293 98.8666 220.452 98.5413 221.502 97.9824C222.426 97.1991 223.273 96.3302 224.033 95.3874C224.094 95.2841 224.195 95.2096 224.311 95.1803C224.428 95.1509 224.551 95.1691 224.655 95.2308C224.758 95.2926 224.832 95.3928 224.862 95.5094C224.891 95.6261 224.873 95.7496 224.811 95.8528Z" fill="#17479E"/>
<defs>
<clipPath id="clip0">
<rect width="319.314" height="73.4928" fill="white" transform="matrix(-1 0 0 1 320.77 249.087)"/>
</clipPath>
</defs>
</svg>
