<svg width="95" height="95" viewBox="0 0 95 95" fill="none" xmlns="http://www.w3.org/2000/svg">
<g clip-path="url(#clip0)">
<path d="M94.1859 0H0V94.1859H94.1859V0Z" fill="url(#paint0_radial)"/>
<path d="M94.1859 0H0V51.7869H94.1859V0Z" fill="url(#paint1_radial)"/>
<path d="M15.9131 60.327C15.9131 59.3574 15.2821 58.6956 14.2202 58.6956H10.3728V61.9583H14.2664C15.2821 61.9583 15.9131 61.2965 15.9131 60.327ZM16.4518 65.344C16.4518 64.3745 15.79 63.6512 14.6973 63.6512H10.3728V67.0369H14.7281C15.7746 67.0369 16.4518 66.3752 16.4518 65.344ZM8.46442 56.972H14.4818C16.5749 56.972 17.8368 58.3417 17.8368 60.0653C17.8368 61.3888 17.0673 62.3276 16.1132 62.6508C17.3751 62.9124 18.3755 64.0513 18.3755 65.5441C18.3755 67.4371 17.052 68.7298 14.9897 68.7298H8.46442V56.972Z" fill="white"/>
<path d="M26.2089 59.0046L23.9158 64.5911H28.5328L26.2089 59.0046ZM30.1641 68.731L29.1638 66.2994H23.2541L22.2537 68.731H20.1607L25.1778 56.9732H27.24L32.2571 68.731H30.1641Z" fill="white"/>
<path d="M43.2609 68.731L36.5201 59.9896V68.731H34.6272V56.9732H36.4586L43.1378 65.5761V56.9732H45.0307V68.731H43.2609Z" fill="white"/>
<path d="M63.2831 64.0525V56.9732H65.176V64.0217C65.176 66.1147 66.438 67.2074 68.4387 67.2074C70.4702 67.2074 71.7013 66.1147 71.7013 64.0217V56.9732H73.5943V64.0525C73.5943 67.269 71.5321 68.9311 68.4387 68.9311C65.3761 68.9311 63.2831 67.2382 63.2831 64.0525Z" fill="white"/>
<path d="M77.0416 68.731V56.9732H85.6446V58.6968H78.9346V61.9133H84.2441V63.637H78.9346V67.0227H85.7061V68.7464H77.0416V68.731Z" fill="white"/>
<path d="M13.62 73.9173H8.46442V85.7213H10.3574V81.3968H13.3122C13.4046 81.3968 13.8509 81.3968 13.9432 81.366C16.0362 81.2275 17.4675 79.6423 17.4675 77.6417C17.4675 75.5794 15.9439 73.9173 13.62 73.9173ZM13.4507 79.6731H10.3728V75.6564H13.4661C14.6665 75.6564 15.5899 76.4874 15.5899 77.6878C15.5745 78.8421 14.6511 79.6731 13.4507 79.6731Z" fill="white"/>
<path d="M54.1569 75.641V73.9173H45.0461V75.641H48.6781V75.6872V85.7213H50.5249V75.641H54.1569Z" fill="white"/>
<path d="M69.87 73.9173H68.0078V85.7213H75.2872V83.9823H69.87V73.9173Z" fill="white"/>
<path d="M38.844 78.7653C36.7818 78.3959 35.7506 78.1035 35.7814 77.1339C35.8122 76.2413 36.5509 75.5796 37.8437 75.4411C38.1361 75.4103 38.4439 75.4103 38.7671 75.4411C39.829 75.5026 40.9216 75.9028 41.6296 76.503C41.6911 76.5337 41.7989 76.5953 41.8296 76.6723L42.8608 75.1794C41.8912 74.3176 40.1983 73.7174 38.5054 73.7174C35.7506 73.7174 33.8885 75.2102 33.8577 77.2724C33.7961 79.704 36.0123 80.1965 38.0745 80.5659C40.3984 80.9968 41.4603 81.2276 41.4295 82.2588C41.3987 83.2283 40.5677 84.0132 38.8748 84.1209C38.6439 84.1209 38.4439 84.1209 38.213 84.1209C36.6894 84.0286 35.489 83.5207 34.658 82.7205C34.5964 82.6589 34.5195 82.6281 34.4579 82.5512L33.396 84.0748C34.6272 85.2444 36.3201 85.8754 38.4131 85.8754C41.4295 85.8754 43.2609 84.3826 43.3224 82.1818C43.4148 79.5655 41.0601 79.1654 38.844 78.7653Z" fill="white"/>
<path d="M25.5779 73.6868C21.9921 73.6868 19.4682 76.3184 19.4682 79.7658C19.4682 83.1823 21.9921 85.8448 25.5779 85.8448C29.1638 85.8448 31.6877 83.2131 31.6877 79.7658C31.7339 76.3184 29.1638 73.6868 25.5779 73.6868ZM25.5779 84.0903C23.0232 84.0903 21.3611 82.1974 21.3611 79.735C21.3611 77.2726 22.9924 75.3796 25.5779 75.3796C28.1327 75.3796 29.7948 77.2726 29.7948 79.735C29.7948 82.1974 28.1788 84.0903 25.5779 84.0903Z" fill="white"/>
<path d="M58.6354 73.9173L53.6183 85.7213H55.7113L56.7116 83.2897H62.6213L63.6217 85.7213H65.7147L60.6976 73.9635H58.6354V73.9173ZM57.3734 81.5661L59.6665 75.9796L61.9596 81.5661H57.3734Z" fill="white"/>
<path d="M79.2424 83.9823V80.5965H84.2595V78.8729H79.2424V75.641H85.6446V73.9173H77.3494V85.7213H85.7215V83.9823H79.2424Z" fill="white"/>
<path d="M60.359 62.8522C60.359 59.4357 57.8351 56.7732 54.2493 56.7732C50.6634 56.7732 48.1395 59.4049 48.1395 62.8522C48.1395 66.3149 50.6634 68.9312 54.2493 68.9312C54.7879 68.9312 55.2804 68.8697 55.7421 68.7619L56.6039 70.855H58.6969L57.4657 68.1002C59.2664 67.0383 60.359 65.1145 60.359 62.8522ZM54.2493 67.2076C51.6945 67.2076 50.0324 65.3146 50.0324 62.8522C50.0324 60.3899 51.6638 58.4969 54.2493 58.4969C56.804 58.4969 58.4661 60.3899 58.4661 62.8522C58.4661 64.345 57.8351 65.6378 56.7732 66.4381L56.3115 65.3454H54.3108L55.0803 67.146C54.7879 67.1768 54.5109 67.2076 54.2493 67.2076Z" fill="white"/>
<path d="M8.46442 51.7868V40.029H10.3574V50.0939H16.5441V51.8176H8.46442V51.7868Z" fill="#FFCC00"/>
<path d="M24.8239 42.0605L22.5308 47.647H27.1477L24.8239 42.0605ZM28.8098 51.7869L27.8095 49.3553H21.8536L20.8533 51.7869H18.7757L23.7927 40.029H25.855L30.9029 51.7869H28.8098Z" fill="#FFCC00"/>
<path d="M27.1785 8.86467C30.7643 10.1266 36.6432 12.4197 39.7366 15.2053L62.3289 14.9744C62.9599 14.1742 63.1907 13.851 63.8833 12.943C65.5146 10.7576 65.607 8.52609 62.1288 8.49532C60.2667 8.46454 30.8721 8.58766 27.4401 8.63383C26.9169 8.60305 26.5167 8.60305 27.1785 8.86467ZM79.6271 15.9748L40.3522 16.6981C40.5215 18.2987 38.7978 20.6225 35.2428 22.8079C33.4114 23.9313 29.2561 26.1629 14.5126 31.7494C14.3126 31.8109 14.4203 32.0418 14.5434 32.011C40.029 25.5473 56.9425 20.7303 79.6271 16.4057C80.335 16.2826 80.766 15.9748 79.6271 15.9748ZM55.9421 22.9618L20.7301 31.8571C20.6686 31.8879 20.5916 31.9956 20.7917 31.9956L48.0625 31.1338C49.7246 31.0722 50.925 29.7333 51.556 28.9023L56.0037 23.1157C56.1114 23.0233 56.1114 22.8848 55.9421 22.9618Z" fill="white"/>
</g>
<defs>
<radialGradient id="paint0_radial" cx="0" cy="0" r="1" gradientUnits="userSpaceOnUse" gradientTransform="translate(9.68357 9.72925) scale(92.7239)">
<stop stop-color="#006CB5"/>
<stop offset="1" stop-color="#1F3460"/>
</radialGradient>
<radialGradient id="paint1_radial" cx="0" cy="0" r="1" gradientUnits="userSpaceOnUse" gradientTransform="translate(49.6333 23.0356) scale(44.4874 24.9939)">
<stop offset="0.063815" stop-opacity="0.5"/>
<stop offset="1" stop-opacity="0"/>
</radialGradient>
<clipPath id="clip0">
<rect width="94.1859" height="94.1859" fill="white"/>
</clipPath>
</defs>
</svg>
