<svg width="95" height="95" viewBox="0 0 95 95" fill="none" xmlns="http://www.w3.org/2000/svg">
<rect width="94.1859" height="94.1859" fill="#083849"/>
<path d="M37.484 28.2136L30.049 43.3044C29.8879 43.6313 29.9528 44.0245 30.2103 44.2823L32.7086 46.7838C33.0057 47.0813 33.4755 47.1174 33.8145 46.8688L44.8828 38.7532C45.2465 38.4866 45.3392 37.9827 45.0942 37.6041L38.9625 28.1274C38.6034 27.5723 37.7762 27.6206 37.484 28.2136Z" fill="#FFC443"/>
<path d="M60.0324 46.1041L61.183 44.5464C61.4348 44.2055 61.3975 43.7312 61.0955 43.4339L60.8662 43.2081C60.7571 43.1007 60.6211 43.0247 60.4724 42.9881L47.1995 39.7209C46.9845 39.668 46.7574 39.7009 46.5663 39.8126L40.1018 43.5919C39.7453 43.8003 39.5898 44.2345 39.7329 44.6219L40.2024 45.8932C40.3259 46.2276 40.6446 46.4496 41.0011 46.4496H59.3476C59.6178 46.4496 59.8719 46.3214 60.0324 46.1041Z" fill="#20B2AA"/>
<path d="M59.0509 29.7207L42.9032 26.1145C42.6272 26.0529 42.3387 26.1323 42.1331 26.3264L41.3502 27.0657C41.0574 27.3422 40.9984 27.7861 41.2088 28.1295L46.9 37.4188C47.0116 37.6009 47.1877 37.7345 47.3932 37.7929L60.9521 41.648C61.2146 41.7226 61.497 41.6669 61.7114 41.4981L62.5177 40.8636C62.7979 40.6431 62.9111 40.2712 62.8011 39.932L59.6752 30.2891C59.5823 30.0025 59.3449 29.7863 59.0509 29.7207Z" fill="#0B4C65"/>
<path d="M34.7939 19.6453L32.8444 17.7002C32.4991 17.3557 31.9399 17.3563 31.5954 17.7016C31.2509 18.047 31.2515 18.6062 31.5968 18.9507L33.5463 20.8958C33.8916 21.2403 34.4508 21.2397 34.7953 20.8944C35.1399 20.5491 35.1392 19.9898 34.7939 19.6453Z" fill="white"/>
<path d="M38.6342 19.1349V15.161C38.6342 14.5732 38.1577 14.0967 37.57 14.0967C36.9822 14.0967 36.5057 14.5732 36.5057 15.161V19.1349C36.5057 19.7226 36.9822 20.1991 37.57 20.1991C38.1577 20.1991 38.6342 19.7226 38.6342 19.1349Z" fill="white"/>
<path d="M41.5877 20.8409L43.5064 18.9222C43.8462 18.5824 43.8462 18.0315 43.5064 17.6917C43.1666 17.3519 42.6156 17.3519 42.2758 17.6917L40.3571 19.6104C40.0173 19.9502 40.0173 20.5011 40.3571 20.8409C40.6969 21.1807 41.2479 21.1807 41.5877 20.8409Z" fill="white"/>
<path d="M60.7117 28.3201C60.5802 27.9332 60.2462 27.6503 59.843 27.5841L38.0811 24.0149C37.6022 23.9364 37.1281 24.1789 36.9115 24.6131L28.0063 42.4676C27.7941 42.8931 27.8774 43.4066 28.2132 43.7432L32.7114 48.2529C32.9191 48.4611 33.201 48.5781 33.4951 48.5781H60.0387C60.3328 48.5781 60.6148 48.461 60.8224 48.2528L65.3082 43.7552C65.6056 43.457 65.708 43.016 65.5724 42.6173L60.7117 28.3201ZM61.8359 39.262C62.1367 40.0953 61.3852 40.9267 60.5258 40.7114L47.9366 37.5569C47.6692 37.49 47.4365 37.3256 47.2839 37.0961L42.011 29.1658C41.4743 28.3586 42.161 27.3003 43.1169 27.4616L57.8769 29.9526C58.2707 30.019 58.5982 30.2925 58.7338 30.6682L61.8359 39.262ZM37.2485 29.4027C37.6284 28.6412 38.6896 28.5753 39.1607 29.2839L44.4658 37.2634C44.8037 37.7716 44.6665 38.4574 44.1591 38.7964L34.4544 45.2826C34.0149 45.5763 33.4291 45.5183 33.0558 45.144L31.1786 43.2622C30.8428 42.9256 30.7595 42.412 30.9718 41.9865L37.2485 29.4027ZM59.8101 45.8141C59.6024 46.0222 59.3205 46.1392 59.0265 46.1392H41.2098C40.1154 46.1392 39.6849 44.7202 40.5949 44.1121L46.5869 40.1081C46.8467 39.9345 47.1678 39.8788 47.4709 39.9547L60.1264 43.1258C60.9601 43.3347 61.2479 44.3726 60.641 44.9811L59.8101 45.8141Z" fill="white"/>
<path d="M27.1037 60.024C27.5906 60.024 28.1654 60.0646 28.8281 60.1457C29.4908 60.2133 30.0791 60.3553 30.5931 60.5717L30.3091 62.1135C29.8086 62.0865 29.3082 62.0662 28.8078 62.0527C28.3209 62.0391 27.8949 62.0324 27.5298 62.0324C26.84 62.0324 26.2923 62.127 25.8865 62.3164C25.4943 62.5057 25.2103 62.8303 25.0345 63.2902C24.8587 63.75 24.7708 64.3992 24.7708 65.2377C24.7708 66.0762 24.8587 66.7322 25.0345 67.2055C25.2103 67.6653 25.4943 67.9899 25.8865 68.1793C26.2923 68.3686 26.84 68.4633 27.5298 68.4633C27.8408 68.4633 28.2804 68.4498 28.8484 68.4227C29.43 68.3957 29.9912 68.3483 30.5322 68.2807L30.7757 69.8631C30.2482 70.0795 29.6599 70.235 29.0107 70.3297C28.3615 70.4244 27.7191 70.4717 27.0835 70.4717C25.8933 70.4717 24.9398 70.3026 24.223 69.9645C23.5062 69.6264 22.9855 69.0787 22.6609 68.3213C22.3499 67.5504 22.1943 66.5225 22.1943 65.2377C22.1943 63.9529 22.3499 62.9318 22.6609 62.1744C22.9855 61.4035 23.5062 60.8557 24.223 60.5312C24.9533 60.193 25.9136 60.024 27.1037 60.024ZM37.3892 60.024C38.5793 60.024 39.4922 60.2742 40.1279 60.7746C40.7635 61.2615 41.0814 62.1609 41.0814 63.4727V70.2282H39.1338L38.8701 68.6053C38.6266 68.8758 38.3156 69.153 37.9369 69.4371C37.5582 69.7211 37.1187 69.9578 36.6183 70.1471C36.1314 70.3364 35.5836 70.4311 34.975 70.4311C34.0689 70.4311 33.3183 70.1944 32.7232 69.7211C32.1416 69.2477 31.8509 68.558 31.8509 67.6518V66.5969C31.8509 65.8125 32.1078 65.2039 32.6218 64.7711C33.1492 64.3248 33.866 64.1016 34.7722 64.1016H38.6064V63.4525C38.6064 62.925 38.4846 62.5463 38.2412 62.3164C37.9978 62.0729 37.5312 61.9512 36.8414 61.9512C36.3275 61.9512 35.6783 61.9715 34.8939 62.0121C34.123 62.0527 33.3453 62.1068 32.5609 62.1744L32.3377 60.4906C32.8111 60.4094 33.3453 60.335 33.9404 60.2674C34.5355 60.1863 35.1306 60.1254 35.7256 60.0848C36.3342 60.0443 36.8887 60.024 37.3892 60.024ZM34.3056 67.3272C34.3056 68.1387 34.7519 68.5444 35.6445 68.5444C36.0773 68.558 36.5574 68.4633 37.0849 68.2604C37.6258 68.0576 38.133 67.7668 38.6064 67.3881V65.6231H35.4416C35.0224 65.6367 34.7248 65.7449 34.549 65.9477C34.3867 66.1506 34.3056 66.4279 34.3056 66.7795V67.3272ZM45.2512 60.2674L45.4947 61.8092C46.1844 61.2277 46.8809 60.7881 47.5842 60.4906C48.2875 60.1795 48.9705 60.024 49.6332 60.024H50.1201L49.8766 62.2961H49.1666C48.6797 62.2961 48.1793 62.3773 47.6654 62.5395C47.1514 62.7018 46.5293 62.9318 45.799 63.2293V70.2282H43.3443V60.2674H45.2512ZM57.2415 60.024C58.5128 60.024 59.4393 60.423 60.0208 61.2209C60.6024 62.0189 60.8932 63.3443 60.8932 65.1971C60.8932 66.2656 60.7579 67.1988 60.4874 67.9967C60.2305 68.7811 59.7639 69.3897 59.0876 69.8225C58.4114 70.2553 57.4444 70.4717 56.1866 70.4717C55.7268 70.4717 55.1993 70.4446 54.6043 70.3905C54.0092 70.3364 53.4209 70.2553 52.8393 70.1471C52.2577 70.0254 51.7506 69.8834 51.3178 69.7211V56.0275H53.7725L53.7928 59.4762C53.7928 59.882 53.7793 60.2742 53.7522 60.6529C53.7252 61.018 53.6643 61.3832 53.5696 61.7484C54.0971 61.2209 54.6719 60.8016 55.294 60.4906C55.9161 60.1795 56.5653 60.024 57.2415 60.024ZM56.2881 62.0121C55.8418 62.0121 55.4225 62.1135 55.0303 62.3164C54.6516 62.5057 54.2323 62.7695 53.7725 63.1076V68.3619C54.1647 68.4565 54.5704 68.5242 54.9897 68.5647C55.409 68.6053 55.7944 68.6188 56.1461 68.6053C56.6735 68.5918 57.0995 68.4836 57.4241 68.2807C57.7487 68.0778 57.9786 67.733 58.1139 67.2461C58.2626 66.7457 58.3438 66.0627 58.3573 65.1971C58.3438 64.3856 58.2762 63.75 58.1544 63.2902C58.0463 62.8168 57.8434 62.4854 57.5458 62.2961C57.2618 62.1068 56.8426 62.0121 56.2881 62.0121ZM67.3035 60.024C68.5207 60.024 69.4877 60.193 70.2045 60.5312C70.9213 60.8693 71.442 61.4238 71.7666 62.1947C72.0912 62.9656 72.2535 63.9867 72.2535 65.258C72.2535 66.5293 72.0912 67.5504 71.7666 68.3213C71.442 69.0922 70.9213 69.6467 70.2045 69.9848C69.4877 70.3229 68.5207 70.492 67.3035 70.492C66.0998 70.492 65.1328 70.3229 64.4025 69.9848C63.6857 69.6467 63.165 69.0922 62.8404 68.3213C62.5293 67.5504 62.3738 66.5293 62.3738 65.258C62.3738 63.9867 62.5293 62.9656 62.8404 62.1947C63.165 61.4238 63.6857 60.8693 64.4025 60.5312C65.1328 60.193 66.0998 60.024 67.3035 60.024ZM67.3035 61.8904C66.7084 61.8904 66.235 61.9918 65.8834 62.1947C65.5453 62.384 65.3019 62.7221 65.1531 63.209C65.0043 63.6959 64.9299 64.3789 64.9299 65.258C64.9299 66.1371 65.0043 66.8201 65.1531 67.3069C65.3019 67.7938 65.5453 68.1319 65.8834 68.3213C66.235 68.5106 66.7084 68.6053 67.3035 68.6053C67.9121 68.6053 68.3854 68.5106 68.7236 68.3213C69.0752 68.1319 69.3254 67.7938 69.4742 67.3069C69.6229 66.8201 69.6973 66.1371 69.6973 65.258C69.6973 64.3789 69.6229 63.6959 69.4742 63.209C69.3254 62.7221 69.0752 62.384 68.7236 62.1947C68.3854 61.9918 67.9121 61.8904 67.3035 61.8904Z" fill="white"/>
</svg>
